<svg width="141" height="30" viewBox="0 0 141 30" fill="none" xmlns="http://www.w3.org/2000/svg">
<g clip-path="url(#clip0_559_24181)">
<rect width="141" height="29.4571" fill="white"/>
<path fill-rule="evenodd" clip-rule="evenodd" d="M18.8479 1.47209L6.24128 7.35066C2.79432 8.95801 1.30301 13.0553 2.91036 16.5023C4.5177 19.9493 8.61503 21.4406 12.062 19.8332L12.2769 19.733L14.4098 13.8057L10.1726 15.7815C8.96338 16.3454 7.52595 15.8222 6.96206 14.6129L6.94547 14.5766C6.4087 13.375 6.93344 11.9606 8.13062 11.4024L16.7151 7.39931L18.8479 1.47209Z" fill="url(#paint0_linear_559_24181)"/>
<path d="M17.7988 10.1347C21.8638 7.93945 26.4166 9.46125 28.024 12.9082C29.6313 16.3552 28.14 20.4525 24.6931 22.0598L11.0128 28.4958L13.1457 22.5686L22.8037 18.0081C23.9889 17.4555 24.5151 16.0637 24.0046 14.87L23.9889 14.8339L23.9723 14.7976C23.4084 13.5883 21.971 13.0651 20.7617 13.629L15.451 16.1621L17.5838 10.2349L17.7988 10.1347Z" fill="url(#paint1_linear_559_24181)"/>
<mask id="mask0_559_24181" style="mask-type:luminance" maskUnits="userSpaceOnUse" x="11" y="9" width="18" height="20">
<path d="M17.7988 10.1347C21.8638 7.93945 26.4166 9.46125 28.024 12.9082C29.6313 16.3552 28.14 20.4525 24.6931 22.0598L11.0128 28.4958L13.1457 22.5686L22.8037 18.0081C23.9889 17.4555 24.5151 16.0637 24.0046 14.87L23.9889 14.8339L23.9723 14.7976C23.4084 13.5883 21.971 13.0651 20.7617 13.629L15.451 16.1621L17.5838 10.2349L17.7988 10.1347Z" fill="white"/>
</mask>
<g mask="url(#mask0_559_24181)">
</g>
<path fill-rule="evenodd" clip-rule="evenodd" d="M53.2871 10.5954V8.27322H42.5842L42.48 8.27425C40.0549 8.3219 38.106 10.0283 38.106 12.1263C38.106 14.2543 40.111 15.9794 42.5842 15.9794H50.0061L50.0802 15.9806C51.1126 16.0141 51.9377 16.7449 51.9377 17.6414C51.9377 18.5593 51.0729 19.3034 50.0061 19.3034H39.4554V21.6256H50.0061L50.1109 21.6246C52.6198 21.5766 54.6365 19.8117 54.6365 17.6414C54.6365 15.4411 52.5634 13.6573 50.0061 13.6573H42.5842L42.5109 13.656C41.5622 13.6229 40.8049 12.9507 40.8049 12.1263C40.8049 11.2808 41.6015 10.5954 42.5842 10.5954H53.2871ZM88.3723 8.27322V10.5954H82.2998V21.7559H79.601V10.5954H73.5285V8.27322H88.3723ZM106.59 10.5954V8.27322H92.4205V10.5954H97.8183V21.7559H100.517V10.5954H106.59ZM128.855 8.27322H131.554V19.3034H141V21.6256H131.554H130.542H128.855V8.27322ZM111.986 8.27322L117.313 14.4367L122.815 8.27322L126.156 8.31766L118.653 16.7296L118.69 21.618L116.035 21.6331L115.997 16.5804L108.614 8.31766L111.986 8.27322Z" fill="#141B31"/>
<rect x="57.2656" y="8.27322" width="12.0634" height="2.12884" fill="#141B31"/>
<rect x="57.2656" y="13.9501" width="12.0634" height="2.12884" fill="#141B31"/>
<rect x="57.2656" y="19.627" width="12.0634" height="2.12884" fill="#141B31"/>
</g>
<defs>
<linearGradient id="paint0_linear_559_24181" x1="-0.882114" y1="9.47803" x2="3.96164" y2="23.3006" gradientUnits="userSpaceOnUse">
<stop stop-color="#2FC5DB"/>
<stop offset="1" stop-color="#00D080"/>
</linearGradient>
<linearGradient id="paint1_linear_559_24181" x1="25.6867" y1="30.1091" x2="29.5875" y2="4.87734" gradientUnits="userSpaceOnUse">
<stop stop-color="#3F4BEE"/>
<stop offset="1" stop-color="#00CBF2"/>
</linearGradient>
<clipPath id="clip0_559_24181">
<rect width="141" height="29.4571" fill="white"/>
</clipPath>
</defs>
</svg>
